<?xml version="1.0" encoding="UTF-8" standalone="no"?>
<!-- Generator: Adobe Illustrator 19.0.0, SVG Export Plug-In . SVG Version: 6.00 Build 0)  -->

<svg
   xmlns:dc="http://purl.org/dc/elements/1.1/"
   xmlns:cc="http://creativecommons.org/ns#"
   xmlns:rdf="http://www.w3.org/1999/02/22-rdf-syntax-ns#"
   xmlns:svg="http://www.w3.org/2000/svg"
   xmlns="http://www.w3.org/2000/svg"
   xmlns:sodipodi="http://sodipodi.sourceforge.net/DTD/sodipodi-0.dtd"
   xmlns:inkscape="http://www.inkscape.org/namespaces/inkscape"
   version="1.1"
   id="Layer_1"
   x="0px"
   y="0px"
   viewBox="0 0 512 512"
   style="enable-background:new 0 0 512 512;"
   xml:space="preserve"
   sodipodi:docname="light-bulb.svg"
   inkscape:version="0.92.2 2405546, 2018-03-11"><metadata
   id="metadata71"><rdf:RDF><cc:Work
       rdf:about=""><dc:format>image/svg+xml</dc:format><dc:type
         rdf:resource="http://purl.org/dc/dcmitype/StillImage" /></cc:Work></rdf:RDF></metadata><defs
   id="defs69" /><sodipodi:namedview
   pagecolor="#ffffff"
   bordercolor="#666666"
   borderopacity="1"
   objecttolerance="10"
   gridtolerance="10"
   guidetolerance="10"
   inkscape:pageopacity="0"
   inkscape:pageshadow="2"
   inkscape:window-width="640"
   inkscape:window-height="480"
   id="namedview67"
   showgrid="false"
   inkscape:zoom="0.4609375"
   inkscape:cx="256"
   inkscape:cy="205.18635"
   inkscape:window-x="0"
   inkscape:window-y="0"
   inkscape:window-maximized="0"
   inkscape:current-layer="Layer_1" />
<g
   transform="rotate(180,255.99952,255.5)"
   id="g34">
	<path
   style="fill:#ffdd09"
   d="M 416.427,155.16 C 407.894,78.36 346.454,16.92 269.654,8.387 c -4.267,0 -9.387,-0.853 -14.507,-0.853 -5.12,0 -9.387,0 -14.507,0.853 -76.8,8.533 -138.24,70.826 -146.773,146.773 -5.973,54.613 14.507,104.107 50.347,138.24 20.48,19.627 37.547,45.227 42.667,72.533 h 136.533 c 5.12,-27.307 22.187,-52.907 42.667,-72.533 35.839,-34.133 56.319,-83.627 50.346,-138.24"
   id="path2"
   inkscape:connector-curvature="0" />
	<path
   style="fill:#fd9808"
   d="M 416.427,155.16 C 407.894,78.36 346.454,16.92 269.654,8.387 265.387,7.534 260.267,7.534 255.147,7.534 c -4.267,0 -8.533,0 -12.8,0.853 0.853,0 1.707,0 1.707,0 C 320,16.92 382.293,78.36 390.827,155.16 396.8,209.773 376.32,259.267 340.48,293.4 320,313.027 302.933,338.627 297.813,365.933 h 25.6 c 5.12,-27.307 22.187,-52.907 42.667,-72.533 35.84,-34.133 56.32,-83.627 50.347,-138.24"
   id="path4"
   inkscape:connector-curvature="0" />
	<path
   style="fill:#ffffff"
   d="M 93.867,155.16 C 102.4,78.36 163.84,16.92 240.64,8.387 c 5.12,0 9.387,-0.853 14.507,-0.853 4.267,0 8.533,0 12.8,0.853 -0.853,0 -1.707,0 -1.707,0 C 189.44,16.92 128,79.213 119.467,155.16 c -5.973,54.613 14.507,104.107 50.347,138.24 20.48,19.627 37.547,45.227 42.667,72.533 h -25.6 C 181.761,338.626 164.694,313.026 144.214,293.4 108.373,259.267 87.893,209.773 93.867,155.16"
   id="path6"
   inkscape:connector-curvature="0" />
	<path
   style="fill:#ffdd09"
   d="m 186.88,365.933 v 102.4 h 136.533 v -68.267 -34.133 z"
   id="path8"
   inkscape:connector-curvature="0" />
	<path
   style="fill:#fd9808"
   d="m 297.813,468.333 h 25.6 v -102.4 h -25.6 z"
   id="path10"
   inkscape:connector-curvature="0" />
	<path
   style="fill:#ffffff"
   d="m 186.88,468.333 h 25.6 v -102.4 h -25.6 z"
   id="path12"
   inkscape:connector-curvature="0" />
	<path
   style="fill:#ffdd09"
   d="m 267.947,502.467 h -25.6 c -7.68,0 -15.36,-3.413 -20.48,-10.24 l -17.92,-23.893 h 102.4 l -17.92,23.893 c -5.12,6.826 -12.8,10.24 -20.48,10.24"
   id="path14"
   inkscape:connector-curvature="0" />
	<path
   style="fill:#fcc309"
   d="m 324.267,161.133 h -51.2 l 42.667,-76.8 h -51.2 L 204.8,195.267 h 42.667 L 204.8,306.2 Z"
   id="path16"
   inkscape:connector-curvature="0" />
	<path
   d="M 324.267,476.867 H 187.733 c -5.12,0 -8.533,-3.413 -8.533,-8.533 v -102.4 c 0,-5.12 3.413,-8.533 8.533,-8.533 h 136.533 c 5.12,0 8.533,3.413 8.533,8.533 v 102.4 c 0.001,5.119 -3.412,8.533 -8.532,8.533 z m -128,-17.067 H 315.734 V 374.467 H 196.267 Z"
   id="path18"
   inkscape:connector-curvature="0" />
	<path
   d="m 268.8,511 h -25.6 c -11.093,0 -20.48,-5.12 -27.307,-13.653 l -17.92,-23.893 c -1.707,-2.56 -2.56,-5.973 -0.853,-8.533 1.707,-2.56 4.267,-5.12 7.68,-5.12 h 102.4 c 3.413,0 5.973,1.707 7.68,5.12 1.707,2.56 0.853,5.973 -0.853,8.533 l -17.92,23.893 C 290.133,505.88 279.893,511 268.8,511 Z m -46.933,-34.133 7.68,10.24 c 3.413,4.267 8.533,6.827 13.653,6.827 h 25.6 c 5.12,0 10.24,-2.56 13.653,-6.827 l 7.68,-10.24 z"
   id="path20"
   inkscape:connector-curvature="0" />
	<path
   d="m 247.467,408.6 h -59.733 c -5.12,0 -8.533,-3.413 -8.533,-8.533 0,-5.12 3.413,-8.533 8.533,-8.533 h 59.733 c 5.12,0 8.533,3.413 8.533,8.533 0,5.12 -3.413,8.533 -8.533,8.533 z"
   id="path22"
   inkscape:connector-curvature="0" />
	<path
   d="m 324.267,442.733 h -59.733 c -5.12,0 -8.533,-3.413 -8.533,-8.533 0,-5.12 3.413,-8.533 8.533,-8.533 h 59.733 c 5.12,0 8.533,3.413 8.533,8.533 0,5.12 -3.413,8.533 -8.533,8.533 z"
   id="path24"
   inkscape:connector-curvature="0" />
	<path
   d="m 324.267,408.6 h -34.133 c -5.12,0 -8.533,-3.413 -8.533,-8.533 0,-5.12 3.413,-8.533 8.533,-8.533 h 34.133 c 5.12,0 8.533,3.413 8.533,8.533 0,5.12 -3.413,8.533 -8.533,8.533 z"
   id="path26"
   inkscape:connector-curvature="0" />
	<path
   d="m 221.867,442.733 h -34.133 c -5.12,0 -8.533,-3.413 -8.533,-8.533 0,-5.12 3.413,-8.533 8.533,-8.533 h 34.133 c 5.12,0 8.533,3.413 8.533,8.533 0,5.12 -3.413,8.533 -8.533,8.533 z"
   id="path28"
   inkscape:connector-curvature="0" />
	<path
   d="m 204.8,314.733 c -1.707,0 -2.56,0 -4.267,-0.853 -3.413,-1.707 -5.12,-6.827 -3.413,-10.24 l 38.4,-99.84 H 204.8 c -3.413,0 -5.973,-1.707 -7.68,-4.267 -1.707,-2.56 -1.707,-5.973 0,-8.533 L 256.853,80.067 c 1.707,-2.56 4.267,-4.267 7.68,-4.267 h 51.2 c 3.413,0 5.973,1.707 7.68,4.267 1.707,2.56 1.707,5.973 0,8.533 l -35.84,64 h 36.693 c 3.413,0 5.973,1.707 7.68,5.12 1.707,3.413 0.853,6.827 -0.853,9.387 L 211.627,312.173 c -1.707,1.707 -4.267,2.56 -6.827,2.56 z m 14.507,-128 h 28.16 c 2.56,0 5.12,1.707 6.827,3.413 1.707,2.56 1.707,5.12 0.853,7.68 l -23.893,61.44 75.093,-89.6 h -33.28 c -3.413,0 -5.973,-1.707 -7.68,-4.267 -1.707,-2.56 -1.707,-5.973 0,-8.533 l 35.84,-64 h -31.573 z"
   id="path30"
   inkscape:connector-curvature="0" />
	<path
   d="M 324.267,374.467 H 187.733 c -4.267,0 -7.68,-2.56 -8.533,-6.827 C 174.08,344.6 160.427,320.707 139.093,300.227 99.84,262.68 80.213,208.92 86.186,154.307 94.72,74.093 159.573,9.24 239.787,-0.147 244.907,-0.147 250.027,-1 256,-1 c 5.973,0 11.093,0.853 16.213,0.853 80.213,8.533 145.067,73.387 153.6,154.453 v 0 c 5.973,54.613 -13.653,107.52 -52.907,145.92 -21.333,20.48 -35.84,44.373 -40.107,67.413 -0.852,4.268 -4.266,6.828 -8.532,6.828 z M 194.56,357.4 h 122.88 c 6.827,-24.747 22.187,-48.64 43.52,-69.973 35.84,-34.133 52.907,-81.92 47.787,-131.413 v 0 c -7.68,-72.533 -66.56,-130.56 -139.093,-139.093 -4.267,0 -8.533,-0.853 -13.653,-0.853 -5.12,0 -9.387,0.853 -13.653,0.853 -72.533,8.533 -130.56,66.56 -139.093,139.093 -5.12,49.493 11.947,97.28 47.787,131.413 21.331,21.333 36.691,45.226 43.518,69.973 z"
   id="path32"
   inkscape:connector-curvature="0" />
</g>
<g
   id="g36">
</g>
<g
   id="g38">
</g>
<g
   id="g40">
</g>
<g
   id="g42">
</g>
<g
   id="g44">
</g>
<g
   id="g46">
</g>
<g
   id="g48">
</g>
<g
   id="g50">
</g>
<g
   id="g52">
</g>
<g
   id="g54">
</g>
<g
   id="g56">
</g>
<g
   id="g58">
</g>
<g
   id="g60">
</g>
<g
   id="g62">
</g>
<g
   id="g64">
</g>
</svg>