<svg height="480pt" viewBox="0 -72 480 480" width="480pt" xmlns="http://www.w3.org/2000/svg"><path d="m40 8-32 48h464l-32-48zm0 0" fill="#603913"/><path d="m8 104h464v-48h-464zm0 0" fill="#482b0e"/><path d="m72 104h-48v224h48v-192h336v192h48v-224zm0 0" fill="#301d0a"/><path d="m480 55.847656c-.023438-.925781-.207031-1.839844-.542969-2.703125-.097656-.222656-.203125-.445312-.320312-.65625-.132813-.316406-.28125-.628906-.449219-.929687l-32-48c-1.488281-2.234375-4-3.5703128-6.6875-3.558594h-400c-2.675781 0-5.171875 1.335938-6.65625 3.558594l-32 48c-.167969.300781-.316406.613281-.449219.929687-.117187.210938-.222656.433594-.320312.65625-.347657.859375-.542969 1.773438-.574219 2.703125v.152344 48c0 4.417969 3.582031 8 8 8h8v216c0 4.417969 3.582031 8 8 8h48c4.417969 0 8-3.582031 8-8v-184h320v184c0 4.417969 3.582031 8 8 8h48c4.417969 0 8-3.582031 8-8v-216h8c4.417969 0 8-3.582031 8-8v-48c0-.054688 0-.097656 0-.152344zm-435.71875-39.847656h391.4375l21.335938 32h-434.109376zm403.71875 304h-32v-184c0-4.417969-3.582031-8-8-8h-336c-4.417969 0-8 3.582031-8 8v184h-32v-208h416zm16-224h-448v-32h448zm0 0"/></svg>